<svg width="290" height="39" viewBox="0 0 290 39" fill="none" xmlns="http://www.w3.org/2000/svg">
<path d="M4.14575 10.368C3.12175 10.368 2.36442 10.272 1.87375 10.08C1.40442 9.86667 1.09509 9.62133 0.945754 9.344C0.817754 9.04533 0.753754 8.77867 0.753754 8.544C0.753754 8.24533 0.92442 7.904 1.26575 7.52C1.60709 7.11467 2.26842 6.816 3.24975 6.624C4.23109 6.41067 5.39375 6.21867 6.73775 6.048C8.08175 5.856 9.51109 5.696 11.0258 5.568C12.5404 5.41867 14.0764 5.29067 15.6338 5.184C17.1911 5.07733 18.6738 5.00267 20.0818 4.96C21.4898 4.896 22.7378 4.864 23.8258 4.864C24.9564 4.864 25.8311 4.928 26.4498 5.056C27.0684 5.184 27.5058 5.344 27.7618 5.536C28.0391 5.728 28.1991 5.93067 28.2418 6.144C28.3058 6.35733 28.3378 6.56 28.3378 6.752C28.3378 6.79467 28.3378 6.82667 28.3378 6.848C28.3378 7.104 28.2738 7.38133 28.1458 7.68C28.0391 7.97867 27.7938 8.23467 27.4098 8.448C27.0258 8.64 26.4498 8.736 25.6818 8.736C25.4044 8.736 24.7858 8.77867 23.8258 8.864C22.8658 8.94933 21.6924 9.056 20.3058 9.184C18.9191 9.312 17.4471 9.44 15.8898 9.568C15.6551 10.528 15.3884 11.648 15.0898 12.928C14.8124 14.208 14.5244 15.552 14.2258 16.96C13.9484 18.368 13.6818 19.7547 13.4258 21.12C13.1698 22.464 12.9564 23.712 12.7858 24.864C12.6151 25.9947 12.4978 26.9227 12.4338 27.648C12.3484 28.6293 12.0604 29.3227 11.5698 29.728C11.1004 30.112 10.6311 30.304 10.1618 30.304C9.82042 30.304 9.47909 30.2293 9.13775 30.08C8.79642 29.952 8.51909 29.664 8.30575 29.216C8.09242 28.7467 7.98575 28.0533 7.98575 27.136C7.98575 26.1973 8.07109 25.0453 8.24175 23.68C8.41242 22.2933 8.63642 20.8107 8.91375 19.232C9.21242 17.6533 9.54309 16.064 9.90575 14.464C10.2898 12.864 10.6844 11.3707 11.0898 9.984C9.66042 10.0907 8.33775 10.1867 7.12175 10.272C5.90575 10.336 4.91375 10.368 4.14575 10.368Z" fill="#DE7F7F"/>
<path d="M23.2778 31.264C22.7444 31.264 22.2858 31.072 21.9018 30.688C21.5391 30.304 21.3578 29.7493 21.3578 29.024C21.3578 28.704 21.4004 28.1813 21.4858 27.456C21.5924 26.7093 21.7204 25.856 21.8698 24.896C22.0404 23.936 22.2004 22.9333 22.3498 21.888C22.5204 20.8427 22.6591 19.8507 22.7658 18.912C22.8938 17.9733 22.9791 17.1733 23.0218 16.512C23.0644 15.7013 23.2778 15.1253 23.6618 14.784C24.0458 14.4213 24.5044 14.24 25.0378 14.24C25.4644 14.24 25.8484 14.3467 26.1898 14.56C26.5524 14.752 26.7764 15.168 26.8618 15.808C26.9684 16.4267 26.9791 17.3227 26.8938 18.496C27.8324 16.7893 28.7818 15.264 29.7418 13.92C30.7231 12.576 31.7471 11.5093 32.8138 10.72C34.5844 9.376 36.1844 8.704 37.6138 8.704C38.4244 8.704 38.9578 8.88533 39.2138 9.248C39.4698 9.61067 39.5978 9.984 39.5978 10.368C39.5978 10.624 39.5338 10.8587 39.4058 11.072C39.2991 11.2853 39.0644 11.5093 38.7018 11.744C38.3391 11.9787 37.7844 12.288 37.0378 12.672C36.0351 13.184 35.0431 13.856 34.0618 14.688C33.1018 15.52 32.1418 16.5867 31.1818 17.888C30.2218 19.1893 29.2511 20.7893 28.2698 22.688C27.2884 24.5867 26.2751 26.848 25.2298 29.472C25.0378 30.1973 24.7604 30.6773 24.3978 30.912C24.0564 31.1467 23.6831 31.264 23.2778 31.264Z" fill="#DE7F7F"/>
<path d="M43.3463 38.656C42.1516 38.656 41.0636 38.5813 40.0823 38.432C39.1009 38.304 38.1409 38.0907 37.2023 37.792C36.2636 37.4933 35.2503 37.0987 34.1623 36.608C33.7143 36.3947 33.3409 36.1707 33.0423 35.936C32.7436 35.7013 32.5943 35.3493 32.5943 34.88C32.5943 34.1973 32.8076 33.6747 33.2343 33.312C33.6396 32.9707 34.2049 32.8 34.9303 32.8C35.3143 32.8 35.8049 32.928 36.4023 33.184C36.9996 33.4613 37.6823 33.7707 38.4503 34.112C39.2396 34.4747 40.1143 34.784 41.0743 35.04C42.0343 35.3173 43.0689 35.456 44.1783 35.456C45.3089 35.456 46.3649 34.9867 47.3463 34.048C48.3276 33.1093 49.1169 31.7867 49.7143 30.08C50.3329 28.3947 50.6423 26.4 50.6423 24.096C50.6423 23.5627 50.6316 22.9867 50.6103 22.368C50.5889 21.728 50.5676 21.056 50.5463 20.352C49.7783 21.8027 48.9463 23.1573 48.0503 24.416C47.1543 25.6747 46.2263 26.6987 45.2663 27.488C44.3276 28.256 43.3783 28.64 42.4183 28.64C41.2449 28.64 40.3916 28.3627 39.8583 27.808C39.3463 27.232 39.0903 26.3253 39.0903 25.088C39.0903 24.0427 39.1649 22.9013 39.3143 21.664C39.4849 20.4053 39.7089 19.136 39.9863 17.856C40.2636 16.576 40.5836 15.36 40.9463 14.208C41.3303 13.0347 41.7356 12.0213 42.1623 11.168C42.4823 10.5493 42.9729 10.24 43.6343 10.24C44.0609 10.24 44.4876 10.4427 44.9143 10.848C45.3623 11.2533 45.5863 11.7973 45.5863 12.48C45.5863 12.864 45.4903 13.4187 45.2983 14.144C45.1063 14.8693 44.8716 15.6907 44.5943 16.608C44.3383 17.504 44.0716 18.4533 43.7943 19.456C43.5169 20.4373 43.2823 21.408 43.0903 22.368C42.8983 23.3067 42.8023 24.16 42.8023 24.928C42.8023 25.0133 42.8663 25.056 42.9943 25.056C43.2503 25.056 43.5916 24.8427 44.0183 24.416C44.4663 23.968 44.9569 23.392 45.4903 22.688C46.0449 21.9627 46.5996 21.1733 47.1543 20.32C47.7303 19.4453 48.2849 18.5813 48.8183 17.728C49.3516 16.8747 49.8316 16.096 50.2583 15.392C50.1943 15.0507 50.1516 14.752 50.1303 14.496C50.1303 14.2187 50.1303 13.984 50.1303 13.792C50.1303 12.9173 50.2796 12.192 50.5783 11.616C50.8983 11.04 51.5169 10.752 52.4343 10.752C53.0316 10.752 53.4903 10.976 53.8103 11.424C54.1303 11.8507 54.2903 12.4587 54.2903 13.248C54.2903 13.5893 54.2369 13.984 54.1303 14.432C54.0236 14.8587 53.8103 15.5413 53.4903 16.48L53.8423 15.488C54.0343 17.408 54.1943 19.1147 54.3223 20.608C54.4716 22.1013 54.5463 23.584 54.5463 25.056C54.5463 27.8293 54.0769 30.2293 53.1383 32.256C52.2209 34.304 50.9196 35.8827 49.2343 36.992C47.5703 38.1013 45.6076 38.656 43.3463 38.656Z" fill="#DE7F7F"/>
<path d="M79.526 31.104C78.6727 31.104 78.0327 30.8693 77.606 30.4C77.1793 29.9307 76.966 29.4507 76.966 28.96C76.966 28.384 77.0727 27.9467 77.286 27.648C77.4993 27.3493 77.9153 27.1253 78.534 26.976C79.3447 26.8053 80.1873 26.592 81.062 26.336C81.958 26.08 82.8113 25.8133 83.622 25.536C84.454 25.2373 85.1793 24.9387 85.798 24.64C86.4167 24.32 86.8647 24.0213 87.142 23.744C86.8007 23.552 86.2567 23.328 85.51 23.072C84.7633 22.7947 83.9313 22.4747 83.014 22.112C82.118 21.728 81.254 21.28 80.422 20.768C79.59 20.256 78.9073 19.6587 78.374 18.976C77.8407 18.2933 77.574 17.5147 77.574 16.64C77.574 15.424 77.8833 14.2827 78.502 13.216C79.1207 12.1493 79.942 11.1573 80.966 10.24C81.99 9.32267 83.0993 8.48 84.294 7.712C85.51 6.944 86.7153 6.25067 87.91 5.632C89.126 4.992 90.214 4.42667 91.174 3.936C91.5367 3.72267 91.878 3.584 92.198 3.52C92.5393 3.43467 92.8487 3.392 93.126 3.392C94.086 3.392 94.7473 3.62667 95.11 4.096C95.4727 4.56533 95.654 5.04533 95.654 5.536C95.654 5.87733 95.494 6.28267 95.174 6.752C94.854 7.2 94.342 7.616 93.638 8C92.9553 8.384 92.0487 8.66133 90.918 8.832C90.726 8.85333 90.5553 8.87467 90.406 8.896C89.5527 9.32267 88.6353 9.83467 87.654 10.432C86.6727 11.0293 85.7447 11.6587 84.87 12.32C84.0167 12.96 83.3127 13.6 82.758 14.24C82.2033 14.88 81.926 15.456 81.926 15.968C81.926 16.544 82.1607 17.0667 82.63 17.536C83.0993 17.984 83.6967 18.4 84.422 18.784C85.1687 19.1467 85.9473 19.4987 86.758 19.84C87.59 20.1813 88.3687 20.5333 89.094 20.896C89.8407 21.2373 90.4487 21.6213 90.918 22.048C91.3873 22.4747 91.622 22.9547 91.622 23.488C91.622 24.2133 91.3767 24.9067 90.886 25.568C90.3953 26.2293 89.7553 26.848 88.966 27.424C88.1767 27.9787 87.3127 28.48 86.374 28.928C85.4353 29.376 84.5073 29.76 83.59 30.08C82.694 30.4213 81.8833 30.6773 81.158 30.848C80.4327 31.0187 79.8887 31.104 79.526 31.104Z" fill="#DE7F7F"/>
<path d="M101.991 30.912C100.476 30.912 99.2598 30.3787 98.3425 29.312C97.4252 28.224 96.9665 26.7733 96.9665 24.96C96.9665 24.384 97.0412 23.7973 97.1905 23.2C97.3612 22.6027 97.5638 22.048 97.7985 21.536C97.6705 21.344 97.5638 21.0987 97.4785 20.8C97.4145 20.48 97.3825 20.1067 97.3825 19.68C97.3825 18.2933 97.6278 17.024 98.1185 15.872C98.6092 14.6987 99.2705 13.6853 100.103 12.832C100.935 11.9787 101.852 11.3173 102.855 10.848C103.857 10.3787 104.871 10.144 105.895 10.144C107.644 10.144 109.073 10.7307 110.183 11.904C111.313 13.0773 111.879 14.9013 111.879 17.376C111.879 18.6133 111.687 19.872 111.303 21.152C110.919 22.432 110.396 23.6587 109.735 24.832C109.095 25.984 108.348 27.0187 107.495 27.936C106.663 28.8533 105.767 29.5787 104.807 30.112C103.868 30.6453 102.929 30.912 101.991 30.912ZM101.479 20.096C101.585 20.3307 101.639 20.608 101.639 20.928C101.639 21.248 101.575 21.5787 101.447 21.92C101.319 22.2613 101.191 22.72 101.063 23.296C100.935 23.8507 100.871 24.6507 100.871 25.696C100.871 25.9733 100.903 26.208 100.967 26.4C101.052 26.5707 101.233 26.656 101.511 26.656C102.236 26.656 102.919 26.4213 103.559 25.952C104.22 25.4827 104.807 24.864 105.319 24.096C105.852 23.328 106.3 22.4747 106.663 21.536C107.047 20.576 107.335 19.6053 107.527 18.624C107.74 17.6213 107.847 16.6933 107.847 15.84C107.847 15.2853 107.74 14.9013 107.527 14.688C107.313 14.4747 106.94 14.368 106.407 14.368C105.681 14.368 104.935 14.6027 104.167 15.072C103.42 15.52 102.791 16.1387 102.279 16.928C101.767 17.696 101.511 18.5707 101.511 19.552C101.511 19.744 101.5 19.9253 101.479 20.096Z" fill="#DE7F7F"/>
<path d="M121.312 30.752C120.117 30.752 119.082 30.4747 118.208 29.92C117.333 29.3867 116.661 28.6933 116.192 27.84C115.722 26.9653 115.488 26.0693 115.488 25.152C115.488 23.616 115.722 22.1973 116.192 20.896C116.661 19.5733 117.28 18.3787 118.048 17.312C118.816 16.224 119.648 15.264 120.544 14.432C121.461 13.6 122.346 12.9067 123.2 12.352C124.074 11.776 124.853 11.3493 125.536 11.072C126.218 10.7733 126.72 10.624 127.04 10.624C127.616 10.624 128.021 10.752 128.256 11.008C128.512 11.2427 128.64 11.6373 128.64 12.192C128.64 12.512 128.405 12.896 127.936 13.344C127.488 13.792 126.89 14.304 126.144 14.88C125.418 15.456 124.65 16.1067 123.84 16.832C123.029 17.5573 122.25 18.368 121.504 19.264C120.778 20.16 120.181 21.1413 119.712 22.208C119.264 23.2747 119.04 24.4373 119.04 25.696C119.04 26.1653 119.125 26.528 119.296 26.784C119.488 27.04 119.797 27.168 120.224 27.168C121.44 27.168 122.741 26.9547 124.128 26.528C125.536 26.08 126.933 25.5253 128.32 24.864C129.728 24.1813 131.05 23.4773 132.288 22.752C133.546 22.0267 134.624 21.376 135.52 20.8C135.882 20.544 136.192 20.3413 136.448 20.192C136.704 20.0427 136.885 19.968 136.992 19.968C137.632 19.968 137.952 20.2987 137.952 20.96C137.952 21.3013 137.696 21.76 137.184 22.336C136.586 23.0827 135.776 23.8507 134.752 24.64C133.749 25.4293 132.629 26.1867 131.392 26.912C130.176 27.6373 128.928 28.288 127.648 28.864C126.389 29.44 125.205 29.8987 124.096 30.24C122.986 30.5813 122.058 30.752 121.312 30.752Z" fill="#DE7F7F"/>
<path d="M137.423 32.352C136.442 32.352 135.738 32.0747 135.311 31.52C134.884 30.9653 134.671 30.1547 134.671 29.088C134.671 28.1067 134.852 26.8267 135.215 25.248C135.599 23.648 136.1 21.8667 136.719 19.904C137.359 17.92 138.074 15.8827 138.863 13.792C139.652 11.68 140.474 9.61067 141.327 7.584C142.18 5.536 143.012 3.65867 143.823 1.952C144.207 1.20533 144.612 0.693333 145.039 0.416C145.466 0.138667 145.935 0 146.447 0C146.938 0 147.354 0.138667 147.695 0.416C148.036 0.672 148.207 1.088 148.207 1.664C148.207 1.792 148.036 2.28267 147.695 3.136C147.354 3.968 146.906 5.056 146.351 6.4C145.796 7.72267 145.188 9.216 144.527 10.88C143.866 12.5227 143.204 14.24 142.543 16.032C141.882 17.8027 141.284 19.552 140.751 21.28C140.218 23.008 139.791 24.608 139.471 26.08C140.218 25.0773 141.018 23.968 141.871 22.752C142.746 21.5147 143.631 20.288 144.527 19.072C145.444 17.8347 146.34 16.704 147.215 15.68C148.111 14.656 148.943 13.8347 149.711 13.216C150.479 12.5973 151.151 12.288 151.727 12.288C152.794 12.288 153.647 12.5867 154.287 13.184C154.948 13.76 155.279 14.7627 155.279 16.192C155.279 16.8533 155.151 17.6533 154.895 18.592C154.639 19.5093 154.33 20.48 153.967 21.504C153.626 22.5067 153.327 23.4773 153.071 24.416C152.815 25.3547 152.687 26.176 152.687 26.88C152.687 27.264 152.868 27.456 153.231 27.456C154.276 27.456 155.332 27.232 156.399 26.784C157.487 26.336 158.522 25.7813 159.503 25.12C160.506 24.4373 161.412 23.7653 162.223 23.104C163.055 22.4213 163.727 21.856 164.239 21.408C164.602 21.0667 164.932 20.8427 165.231 20.736C165.53 20.608 165.807 20.544 166.063 20.544C166.938 20.544 167.375 20.9813 167.375 21.856C167.375 22.0267 167.343 22.24 167.279 22.496C167.215 22.7307 167.012 23.0293 166.671 23.392C166.33 23.7547 165.818 24.2667 165.135 24.928C164.452 25.5893 163.652 26.2933 162.735 27.04C161.839 27.7867 160.858 28.5013 159.791 29.184C158.746 29.8453 157.668 30.3893 156.559 30.816C155.45 31.2427 154.372 31.456 153.327 31.456C151.748 31.456 150.532 31.008 149.679 30.112C148.826 29.2373 148.399 28.0427 148.399 26.528C148.399 25.4827 148.612 24.1707 149.039 22.592C149.466 20.992 149.946 19.36 150.479 17.696C149.732 18.4213 148.954 19.2853 148.143 20.288C147.332 21.2693 146.511 22.3147 145.679 23.424C144.847 24.512 144.026 25.5893 143.215 26.656C142.426 27.7013 141.668 28.6613 140.943 29.536C140.218 30.3893 139.556 31.072 138.959 31.584C138.362 32.096 137.85 32.352 137.423 32.352Z" fill="#DE7F7F"/>
<path d="M201.176 13.728C201.176 13.984 201.091 14.208 200.92 14.4C200.749 14.592 200.536 14.7413 200.28 14.848C199.917 14.9973 199.288 15.1893 198.392 15.424C197.496 15.6587 196.408 15.9253 195.128 16.224C193.869 16.5227 192.515 16.832 191.064 17.152C189.613 17.4507 188.163 17.7387 186.712 18.016C186.157 20.064 185.592 22.176 185.016 24.352C184.44 26.5067 183.864 28.6293 183.288 30.72C183.075 31.4667 182.819 32.032 182.52 32.416C182.221 32.8213 181.709 33.024 180.984 33.024C180.195 33.024 179.661 32.768 179.384 32.256C179.128 31.7653 179.096 31.0933 179.288 30.24C179.843 27.9147 180.355 25.7493 180.824 23.744C181.315 21.7387 181.709 20.1173 182.008 18.88C180.728 19.0933 179.608 19.264 178.648 19.392C177.688 19.4987 177.005 19.5413 176.6 19.52C176.152 19.4773 175.779 19.296 175.48 18.976C175.181 18.656 175.043 18.2613 175.064 17.792C175.107 17.3653 175.299 17.0027 175.64 16.704C175.981 16.384 176.387 16.192 176.856 16.128C177.517 16.064 178.371 15.968 179.416 15.84C180.461 15.712 181.613 15.5627 182.872 15.392C183.149 14.304 183.469 13.184 183.832 12.032C184.195 10.8587 184.568 9.73867 184.952 8.672C185.357 7.584 185.741 6.63467 186.104 5.824C186.467 5.01333 186.797 4.42667 187.096 4.064C187.331 3.78667 187.619 3.57333 187.96 3.424C188.323 3.27467 188.675 3.2 189.016 3.2C189.464 3.2 189.827 3.36 190.104 3.68C190.381 4 190.52 4.37333 190.52 4.8C190.52 4.97067 190.509 5.152 190.488 5.344C190.467 5.51467 190.424 5.68533 190.36 5.856C189.955 6.92267 189.517 8.21333 189.048 9.728C188.6 11.2427 188.131 12.9067 187.64 14.72C189.24 14.4853 190.808 14.2507 192.344 14.016C193.901 13.76 195.309 13.5253 196.568 13.312C197.848 13.0773 198.872 12.8747 199.64 12.704C200.067 12.5547 200.429 12.5867 200.728 12.8C201.027 12.992 201.176 13.3013 201.176 13.728Z" fill="#DE7F7F"/>
<path d="M201.678 30.912C200.163 30.912 198.947 30.3787 198.03 29.312C197.113 28.224 196.654 26.7733 196.654 24.96C196.654 24.384 196.729 23.7973 196.878 23.2C197.049 22.6027 197.251 22.048 197.486 21.536C197.358 21.344 197.251 21.0987 197.166 20.8C197.102 20.48 197.07 20.1067 197.07 19.68C197.07 18.2933 197.315 17.024 197.806 15.872C198.297 14.6987 198.958 13.6853 199.79 12.832C200.622 11.9787 201.539 11.3173 202.542 10.848C203.545 10.3787 204.558 10.144 205.582 10.144C207.331 10.144 208.761 10.7307 209.87 11.904C211.001 13.0773 211.566 14.9013 211.566 17.376C211.566 18.6133 211.374 19.872 210.99 21.152C210.606 22.432 210.083 23.6587 209.422 24.832C208.782 25.984 208.035 27.0187 207.182 27.936C206.35 28.8533 205.454 29.5787 204.494 30.112C203.555 30.6453 202.617 30.912 201.678 30.912ZM201.166 20.096C201.273 20.3307 201.326 20.608 201.326 20.928C201.326 21.248 201.262 21.5787 201.134 21.92C201.006 22.2613 200.878 22.72 200.75 23.296C200.622 23.8507 200.558 24.6507 200.558 25.696C200.558 25.9733 200.59 26.208 200.654 26.4C200.739 26.5707 200.921 26.656 201.198 26.656C201.923 26.656 202.606 26.4213 203.246 25.952C203.907 25.4827 204.494 24.864 205.006 24.096C205.539 23.328 205.987 22.4747 206.35 21.536C206.734 20.576 207.022 19.6053 207.214 18.624C207.427 17.6213 207.534 16.6933 207.534 15.84C207.534 15.2853 207.427 14.9013 207.214 14.688C207.001 14.4747 206.627 14.368 206.094 14.368C205.369 14.368 204.622 14.6027 203.854 15.072C203.107 15.52 202.478 16.1387 201.966 16.928C201.454 17.696 201.198 18.5707 201.198 19.552C201.198 19.744 201.187 19.9253 201.166 20.096Z" fill="#DE7F7F"/>
<path d="M228.799 12.736C229.972 9.94133 231.007 7.06133 231.903 4.096C232.073 3.49867 232.319 3.04 232.639 2.72C232.98 2.4 233.449 2.24 234.047 2.24C234.537 2.24 234.911 2.38933 235.167 2.688C235.423 2.96533 235.551 3.34933 235.551 3.84C235.551 4.24533 235.38 4.97067 235.039 6.016C234.697 7.04 234.281 8.34133 233.791 9.92C233.3 11.4987 232.809 13.3227 232.319 15.392C231.828 17.4613 231.412 19.7333 231.071 22.208C230.729 24.6827 230.559 27.328 230.559 30.144C230.559 30.912 230.409 31.5413 230.111 32.032C229.833 32.544 229.343 32.8 228.639 32.8C227.871 32.8 227.305 32.5333 226.943 32C226.601 31.4667 226.431 30.784 226.431 29.952C226.431 28.3093 226.484 26.944 226.591 25.856C226.719 24.7467 226.847 23.7973 226.975 23.008C225.929 24.8 224.82 26.3467 223.647 27.648C222.495 28.928 221.385 29.9093 220.319 30.592C219.252 31.296 218.335 31.648 217.567 31.648C216.308 31.648 215.284 31.296 214.495 30.592C213.705 29.888 213.311 28.8213 213.311 27.392C213.311 26.2827 213.577 25.1413 214.111 23.968C214.644 22.7733 215.348 21.6 216.223 20.448C217.097 19.296 218.057 18.2187 219.103 17.216C220.169 16.192 221.236 15.296 222.303 14.528C223.369 13.7387 224.361 13.12 225.279 12.672C226.196 12.224 226.943 12 227.519 12C228.159 12 228.585 12.2453 228.799 12.736ZM228.063 14.464C227.935 14.5493 227.796 14.6347 227.647 14.72C227.519 14.784 227.391 14.8587 227.263 14.944C226.452 15.456 225.588 16.0747 224.671 16.8C223.753 17.504 222.847 18.2933 221.951 19.168C221.055 20.0213 220.233 20.9173 219.487 21.856C218.761 22.7733 218.175 23.6907 217.727 24.608C217.3 25.504 217.087 26.368 217.087 27.2C217.087 27.3493 217.151 27.456 217.279 27.52C217.407 27.584 217.524 27.616 217.631 27.616C218.377 27.616 219.177 27.2853 220.031 26.624C220.905 25.9627 221.791 25.0453 222.687 23.872C223.604 22.6773 224.511 21.28 225.407 19.68C226.324 18.08 227.209 16.3413 228.063 14.464Z" fill="#DE7F7F"/>
<path d="M239.384 31.072C238.701 31.072 238.082 30.88 237.528 30.496C236.973 30.1333 236.536 29.6533 236.216 29.056C235.896 28.4373 235.736 27.776 235.736 27.072C235.736 25.7493 236.024 24.4587 236.6 23.2C237.197 21.9413 237.976 20.7467 238.936 19.616C239.896 18.4853 240.941 17.4507 242.072 16.512C243.224 15.552 244.365 14.7307 245.496 14.048C246.648 13.3653 247.693 12.832 248.632 12.448C249.592 12.064 250.338 11.872 250.872 11.872C251.49 11.872 251.992 12.0107 252.376 12.288C252.781 12.544 252.984 12.9493 252.984 13.504C252.984 13.6747 252.941 13.8133 252.856 13.92C253.133 13.984 253.357 14.144 253.528 14.4C253.698 14.656 253.784 15.04 253.784 15.552C253.784 15.7653 253.73 16.32 253.624 17.216C253.517 18.112 253.4 19.2 253.272 20.48C253.165 21.76 253.112 23.0933 253.112 24.48C253.112 24.6933 253.144 24.8853 253.208 25.056C253.272 25.2053 253.41 25.28 253.624 25.28C254.477 25.28 255.341 25.1093 256.216 24.768C257.112 24.4053 257.976 23.968 258.808 23.456C259.661 22.9227 260.429 22.4 261.112 21.888C261.816 21.3547 262.402 20.9173 262.872 20.576C263.362 20.2133 263.682 20.032 263.832 20.032C264.557 20.032 264.92 20.3947 264.92 21.12C264.92 21.312 264.685 21.7173 264.216 22.336C263.768 22.9333 263.149 23.6267 262.36 24.416C261.57 25.184 260.685 25.952 259.704 26.72C258.744 27.4667 257.741 28.0853 256.696 28.576C255.672 29.0667 254.68 29.312 253.72 29.312C252.546 29.312 251.65 29.0347 251.032 28.48C250.434 27.9253 250.008 27.1787 249.752 26.24C249.517 25.28 249.389 24.2027 249.368 23.008C248.28 24.5653 247.149 25.952 245.976 27.168C244.824 28.3627 243.682 29.312 242.552 30.016C241.421 30.72 240.365 31.072 239.384 31.072ZM250.712 15.04C248.621 16.0427 246.744 17.1947 245.08 18.496C243.416 19.776 242.093 21.12 241.112 22.528C240.152 23.936 239.672 25.2907 239.672 26.592C239.672 26.9547 239.842 27.136 240.184 27.136C240.589 27.136 241.122 26.9013 241.784 26.432C242.466 25.9627 243.202 25.344 243.992 24.576C244.781 23.7867 245.57 22.912 246.36 21.952C247.149 20.9707 247.885 19.968 248.568 18.944C249.25 17.92 249.794 16.9387 250.2 16C250.349 15.6587 250.52 15.3387 250.712 15.04Z" fill="#DE7F7F"/>
<path d="M267.096 38.656C265.902 38.656 264.814 38.5813 263.832 38.432C262.851 38.304 261.891 38.0907 260.952 37.792C260.014 37.4933 259 37.0987 257.912 36.608C257.464 36.3947 257.091 36.1707 256.792 35.936C256.494 35.7013 256.344 35.3493 256.344 34.88C256.344 34.1973 256.558 33.6747 256.984 33.312C257.39 32.9707 257.955 32.8 258.68 32.8C259.064 32.8 259.555 32.928 260.152 33.184C260.75 33.4613 261.432 33.7707 262.2 34.112C262.99 34.4747 263.864 34.784 264.824 35.04C265.784 35.3173 266.819 35.456 267.928 35.456C269.059 35.456 270.115 34.9867 271.096 34.048C272.078 33.1093 272.867 31.7867 273.464 30.08C274.083 28.3947 274.392 26.4 274.392 24.096C274.392 23.5627 274.382 22.9867 274.36 22.368C274.339 21.728 274.318 21.056 274.296 20.352C273.528 21.8027 272.696 23.1573 271.8 24.416C270.904 25.6747 269.976 26.6987 269.016 27.488C268.078 28.256 267.128 28.64 266.168 28.64C264.995 28.64 264.142 28.3627 263.608 27.808C263.096 27.232 262.84 26.3253 262.84 25.088C262.84 24.0427 262.915 22.9013 263.064 21.664C263.235 20.4053 263.459 19.136 263.736 17.856C264.014 16.576 264.334 15.36 264.696 14.208C265.08 13.0347 265.486 12.0213 265.912 11.168C266.232 10.5493 266.723 10.24 267.384 10.24C267.811 10.24 268.238 10.4427 268.664 10.848C269.112 11.2533 269.336 11.7973 269.336 12.48C269.336 12.864 269.24 13.4187 269.048 14.144C268.856 14.8693 268.622 15.6907 268.344 16.608C268.088 17.504 267.822 18.4533 267.544 19.456C267.267 20.4373 267.032 21.408 266.84 22.368C266.648 23.3067 266.552 24.16 266.552 24.928C266.552 25.0133 266.616 25.056 266.744 25.056C267 25.056 267.342 24.8427 267.768 24.416C268.216 23.968 268.707 23.392 269.24 22.688C269.795 21.9627 270.35 21.1733 270.904 20.32C271.48 19.4453 272.035 18.5813 272.568 17.728C273.102 16.8747 273.582 16.096 274.008 15.392C273.944 15.0507 273.902 14.752 273.88 14.496C273.88 14.2187 273.88 13.984 273.88 13.792C273.88 12.9173 274.03 12.192 274.328 11.616C274.648 11.04 275.267 10.752 276.184 10.752C276.782 10.752 277.24 10.976 277.56 11.424C277.88 11.8507 278.04 12.4587 278.04 13.248C278.04 13.5893 277.987 13.984 277.88 14.432C277.774 14.8587 277.56 15.5413 277.24 16.48L277.592 15.488C277.784 17.408 277.944 19.1147 278.072 20.608C278.222 22.1013 278.296 23.584 278.296 25.056C278.296 27.8293 277.827 30.2293 276.888 32.256C275.971 34.304 274.67 35.8827 272.984 36.992C271.32 38.1013 269.358 38.656 267.096 38.656Z" fill="#DE7F7F"/>
<path d="M285.982 30.688C285.321 30.688 284.702 30.4853 284.126 30.08C283.55 29.6747 283.262 29.0133 283.262 28.096C283.262 27.392 283.444 26.8267 283.806 26.4C284.169 25.952 284.585 25.6213 285.054 25.408C285.545 25.1947 285.961 25.088 286.302 25.088C286.665 25.088 287.07 25.1733 287.518 25.344C287.988 25.4933 288.393 25.7813 288.734 26.208C289.076 26.6133 289.246 27.2 289.246 27.968C289.246 28.7147 288.926 29.3547 288.286 29.888C287.668 30.4213 286.9 30.688 285.982 30.688Z" fill="#DE7F7F"/>
</svg>
