<svg width="96" height="9" viewBox="0 0 96 9" fill="none" xmlns="http://www.w3.org/2000/svg">
<g id="Vector">
<path fill-rule="evenodd" clip-rule="evenodd" d="M0.5897 6.49707C3.04017 7.80458 9.05769 6.15778 11.703 5.7371C15.8466 5.07719 19.4617 4.80637 23.7322 5.5441C27.0744 6.12369 31.519 7.14343 34.8221 7.31394C37.1961 7.43702 38.7779 7.01933 41.0806 6.96316L59.7638 7.81843C63.8098 8.07798 67.994 7.55457 72.2572 7.72155C76.3139 7.88745 93.5594 9.24634 95.8151 8.29551C92.5613 6.60902 88.0537 7.76961 84.1423 7.44262C79.6427 7.06997 76.3612 6.72922 71.6948 6.67088C63.9931 6.56269 53.614 7.10499 46.1635 6.35924C41.1277 5.85603 38.5944 6.57543 34.2596 6.27178C30.8125 6.02387 27.0914 4.84604 23.4591 4.45235C18.1552 3.8796 3.14505 5.5052 0.579375 6.49702L0.5897 6.49707Z" fill="white"/>
<path fill-rule="evenodd" clip-rule="evenodd" d="M0.184875 0.889036C1.74027 1.5871 21.4295 1.5617 25.8157 1.9082C29.9749 2.23649 32.5898 3.68967 36.8876 3.15833C40.5759 2.70049 44.2874 1.74871 47.5007 1.29691C51.2617 0.762781 54.8997 2.03388 59.7341 1.55644C72.5019 0.293987 89.705 5.84363 94.444 1.8647C93.3435 1.04974 93.4978 1.1698 91.834 1.46781C81.1998 3.40578 78.89 0.846817 71.0861 0.550691C62.4564 0.224716 66.4146 -0.504308 59.0786 0.547882C54.398 1.22204 51.1236 -0.490115 46.897 0.246031C43.4248 0.849808 39.0726 1.90048 35.4471 2.1968C32.1935 2.45247 32.1353 1.74515 29.5672 1.2207C27.8551 0.871068 25.7278 0.953705 23.8084 0.764842C19.8766 0.386631 14.528 0.478074 10.5011 0.533799C8.84899 0.559282 5.76067 0.798771 4.31592 0.663485C1.8389 0.488759 1.07011 -0.580017 0.184875 0.889036Z" fill="white"/>
</g>
</svg>
