<svg width="229" height="77" viewBox="0 0 229 77" fill="none" xmlns="http://www.w3.org/2000/svg">
<path d="M210.764 0.000247433H18.2464C17.5447 0.000247433 16.8513 0.000247434 16.1515 0.00407481C15.5656 0.0079022 14.9844 0.0190207 14.3929 0.0283787C13.1078 0.0435003 11.8259 0.156551 10.558 0.366547C9.29197 0.581115 8.06558 0.985637 6.92033 1.56643C5.77647 2.15214 4.7313 2.91321 3.82273 3.82202C2.90939 4.72828 2.14805 5.7758 1.56798 6.92429C0.986317 8.07049 0.582988 9.29875 0.371926 10.5667C0.158857 11.833 0.0442032 13.1139 0.0289924 14.3979C0.0112334 14.9846 0.00935795 15.5733 0 16.1601V60.3936C0.00935795 60.9878 0.0112334 61.5635 0.0289924 62.1579C0.0442078 63.4418 0.158862 64.7227 0.371926 65.9889C0.582405 67.2575 0.985758 68.4865 1.56798 69.6331C2.14778 70.7779 2.90923 71.8212 3.82273 72.7224C4.72786 73.6353 5.7737 74.3969 6.92033 74.9781C8.06557 75.5604 9.29183 75.9674 10.558 76.1852C11.8261 76.3935 13.1079 76.5066 14.3929 76.5236C14.9844 76.5366 15.5656 76.5441 16.1515 76.5441C16.8513 76.5479 17.5447 76.5479 18.2464 76.5479H210.764C211.452 76.5479 212.151 76.5479 212.838 76.5441C213.421 76.5441 214.019 76.5366 214.603 76.5236C215.885 76.5075 217.165 76.3944 218.43 76.1852C219.7 75.9658 220.931 75.559 222.082 74.9781C223.227 74.3965 224.272 73.6349 225.176 72.7224C226.088 71.8177 226.851 70.7751 227.438 69.6331C228.016 68.4857 228.415 67.2568 228.622 65.9889C228.836 64.7225 228.955 63.4419 228.978 62.1579C228.985 61.5635 228.985 60.9878 228.985 60.3936C229 59.6984 229 59.007 229 58.3005V18.2494C229 17.5486 229 16.8534 228.985 16.1601C228.985 15.5733 228.985 14.9846 228.978 14.3978C228.955 13.1137 228.836 11.833 228.622 10.5666C228.414 9.29941 228.015 8.07124 227.438 6.92421C226.256 4.62219 224.383 2.74836 222.082 1.56626C220.931 0.986884 219.7 0.582469 218.43 0.366375C217.165 0.155453 215.885 0.0423635 214.603 0.0281108C214.019 0.018772 213.421 0.00755773 212.838 0.00382604C212.151 -1.34646e-06 211.452 0.000247433 210.764 0.000247433Z" fill="black"/>
<path d="M16.1608 74.8731C15.5777 74.8731 15.0087 74.8657 14.4303 74.8527C13.2319 74.8371 12.0363 74.7327 10.8533 74.5405C9.75023 74.3506 8.68166 73.9972 7.68282 73.492C6.69314 72.9911 5.79047 72.3342 5.00939 71.5466C4.21701 70.7682 3.55731 69.8655 3.05645 68.8741C2.55007 67.8763 2.19962 66.8067 2.01732 65.7027C1.82044 64.5165 1.71393 63.317 1.69869 62.1146C1.68655 61.711 1.67067 60.3672 1.67067 60.3672V16.1599C1.67067 16.1599 1.68759 14.8367 1.69878 14.448C1.71338 13.2475 1.81927 12.0498 2.01556 10.8654C2.1982 9.75839 2.54892 8.68576 3.05557 7.68467C3.55459 6.69398 4.21063 5.79056 4.99823 5.00943C5.78496 4.22088 6.69051 3.56062 7.68188 3.05274C8.67842 2.54921 9.74498 2.19832 10.8458 2.0118C12.0327 1.81769 13.2324 1.71274 14.435 1.69784L16.1617 1.67448H212.829L214.576 1.69878C215.768 1.71294 216.957 1.81695 218.133 2.00993C219.245 2.19878 220.322 2.55213 221.33 3.05834C223.316 4.08187 224.932 5.7012 225.952 7.68934C226.45 8.68352 226.796 9.74739 226.976 10.8449C227.175 12.039 227.286 13.2461 227.309 14.4564C227.314 14.9984 227.314 15.5805 227.314 16.1599C227.329 16.8775 227.329 17.5605 227.329 18.2492V58.3002C227.329 58.9954 227.329 59.6739 227.314 60.3578C227.314 60.9801 227.314 61.5502 227.307 62.137C227.284 63.3257 227.175 64.5112 226.98 65.684C226.801 66.796 226.453 67.8738 225.946 68.8798C225.442 69.8605 224.786 70.7554 224.003 71.5316C223.221 72.3235 222.317 72.9842 221.325 73.4884C220.32 73.9974 219.244 74.3521 218.133 74.5405C216.95 74.7337 215.754 74.8381 214.556 74.8527C213.995 74.8657 213.408 74.8731 212.838 74.8731L210.764 74.877L16.1608 74.8731Z" fill="white"/>
<path d="M47.836 38.0621C47.8574 36.4011 48.2986 34.7724 49.1185 33.3278C49.9385 31.8831 51.1105 30.6693 52.5256 29.7993C51.6266 28.5154 50.4407 27.4588 49.0619 26.7134C47.6832 25.9681 46.1496 25.5545 44.5831 25.5054C41.2413 25.1547 38.0016 27.5051 36.2987 27.5051C34.5628 27.5051 31.941 25.5403 29.1176 25.5983C27.2914 25.6573 25.5116 26.1884 23.9517 27.1398C22.3917 28.0911 21.1048 29.4303 20.2163 31.0269C16.3677 37.6904 19.2384 47.4835 22.9252 52.8698C24.7698 55.5073 26.9255 58.4534 29.7463 58.349C32.5066 58.2345 33.5375 56.5888 36.8694 56.5888C40.1705 56.5888 41.1376 58.349 44.0157 58.2825C46.9776 58.2345 48.8438 55.6333 50.6237 52.9708C51.949 51.0915 52.9688 49.0145 53.6454 46.8166C51.9246 46.0888 50.4561 44.8705 49.423 43.3137C48.3899 41.7569 47.838 39.9305 47.836 38.0621Z" fill="black"/>
<path d="M42.3999 21.9631C44.0149 20.0244 44.8106 17.5325 44.6179 15.0166C42.1506 15.2757 39.8715 16.4549 38.2347 18.3193C37.4344 19.23 36.8215 20.2896 36.431 21.4374C36.0404 22.5852 35.8799 23.7987 35.9587 25.0086C37.1928 25.0213 38.4137 24.7538 39.5294 24.2262C40.6451 23.6987 41.6266 22.9249 42.3999 21.9631Z" fill="black"/>
<path d="M80.9525 51.9369H71.8942L69.7189 58.3601H65.8822L74.462 34.5959H78.4483L87.0281 58.3601H83.126L80.9525 51.9369ZM72.8324 48.9729H80.0126L76.473 38.5485H76.3739L72.8324 48.9729Z" fill="black"/>
<path d="M105.558 49.698C105.558 55.0822 102.676 58.5414 98.3271 58.5414C97.2255 58.599 96.1299 58.3452 95.1658 57.8091C94.2017 57.273 93.408 56.4763 92.8757 55.5101H92.7934V64.0918H89.237V41.0341H92.6794V43.9158H92.7448C93.3016 42.9543 94.1087 42.1616 95.0801 41.6223C96.0516 41.0829 97.1511 40.817 98.2616 40.8528C102.659 40.8528 105.558 44.3288 105.558 49.698ZM101.902 49.698C101.902 46.1902 100.089 43.8841 97.3235 43.8841C94.6062 43.8841 92.7785 46.2388 92.7785 49.698C92.7785 53.189 94.6062 55.5269 97.3235 55.5269C100.089 55.5269 101.902 53.2376 101.902 49.698Z" fill="black"/>
<path d="M124.628 49.698C124.628 55.0822 121.746 58.5414 117.397 58.5414C116.295 58.599 115.2 58.3452 114.235 57.8091C113.271 57.273 112.478 56.4763 111.945 55.5101H111.863V64.0918H108.307V41.0341H111.749V43.9158H111.814C112.371 42.9543 113.178 42.1616 114.15 41.6223C115.121 41.0829 116.221 40.817 117.331 40.8528C121.729 40.8528 124.628 44.3288 124.628 49.698ZM120.972 49.698C120.972 46.1902 119.159 43.8841 116.393 43.8841C113.676 43.8841 111.848 46.2388 111.848 49.698C111.848 53.189 113.676 55.5269 116.393 55.5269C119.159 55.5269 120.972 53.2376 120.972 49.698Z" fill="black"/>
<path d="M137.23 51.7388C137.493 54.0954 139.783 55.6427 142.911 55.6427C145.909 55.6427 148.065 54.0953 148.065 51.9704C148.065 50.1259 146.765 49.0214 143.685 48.2645L140.605 47.5226C136.241 46.4686 134.215 44.4278 134.215 41.1162C134.215 37.016 137.789 34.1996 142.861 34.1996C147.884 34.1996 151.326 37.016 151.442 41.1162H147.852C147.637 38.7447 145.677 37.3131 142.812 37.3131C139.947 37.3131 137.987 38.7615 137.987 40.8695C137.987 42.5496 139.239 43.5382 142.302 44.295L144.92 44.9379C149.796 46.091 151.82 48.0496 151.82 51.5256C151.82 55.9715 148.28 58.7561 142.647 58.7561C137.377 58.7561 133.819 56.037 133.589 51.7386L137.23 51.7388Z" fill="black"/>
<path d="M159.499 36.9338V41.0341H162.794V43.8504H159.499V53.4021C159.499 54.8859 160.159 55.5774 161.607 55.5774C161.998 55.5706 162.389 55.5431 162.777 55.4951V58.2946C162.126 58.4163 161.464 58.4714 160.801 58.4591C157.294 58.4591 155.926 57.1415 155.926 53.7814V43.8504H153.406V41.0341H155.926V36.9338H159.499Z" fill="black"/>
<path d="M164.7 49.698C164.7 44.2466 167.911 40.821 172.917 40.821C177.941 40.821 181.136 44.2466 181.136 49.698C181.136 55.1644 177.957 58.575 172.917 58.575C167.879 58.575 164.7 55.1644 164.7 49.698ZM177.513 49.698C177.513 45.9585 175.799 43.7514 172.917 43.7514C170.035 43.7514 168.322 45.9753 168.322 49.698C168.322 53.4525 170.035 55.6428 172.917 55.6428C175.799 55.6428 177.513 53.4525 177.513 49.698Z" fill="black"/>
<path d="M184.068 41.0341H187.46V43.9831H187.543C187.772 43.062 188.312 42.2481 189.071 41.678C189.83 41.108 190.762 40.8166 191.71 40.8528C192.12 40.8513 192.529 40.8959 192.929 40.9855V44.312C192.411 44.1539 191.872 44.0813 191.331 44.0971C190.814 44.0761 190.299 44.1672 189.821 44.3641C189.343 44.561 188.913 44.859 188.561 45.2377C188.209 45.6164 187.943 46.0669 187.781 46.558C187.62 47.0492 187.566 47.5696 187.625 48.0833V58.3601H184.068L184.068 41.0341Z" fill="black"/>
<path d="M209.326 53.2712C208.847 56.4165 205.784 58.575 201.865 58.575C196.825 58.575 193.697 55.198 193.697 49.7802C193.697 44.3457 196.842 40.821 201.716 40.821C206.509 40.821 209.524 44.1139 209.524 49.3672V50.5857H197.287V50.8006C197.23 51.4383 197.31 52.0806 197.521 52.685C197.732 53.2895 198.069 53.8421 198.51 54.3063C198.951 54.7704 199.485 55.1355 200.078 55.3772C200.671 55.6189 201.308 55.7317 201.948 55.7082C202.788 55.7869 203.631 55.5923 204.352 55.1532C205.073 54.7141 205.633 54.0541 205.949 53.2712L209.326 53.2712ZM197.304 48.1002H205.966C205.998 47.5268 205.911 46.9531 205.71 46.4149C205.51 45.8768 205.201 45.3858 204.802 44.9729C204.403 44.56 203.922 44.2341 203.391 44.0155C202.86 43.7969 202.29 43.6904 201.716 43.7028C201.137 43.6993 200.563 43.8106 200.027 44.0302C199.491 44.2498 199.004 44.5733 198.594 44.9821C198.183 45.391 197.858 45.877 197.637 46.4121C197.415 46.9473 197.302 47.521 197.304 48.1002Z" fill="black"/>
<path d="M72.3876 16.7084C73.1332 16.6549 73.8814 16.7676 74.5782 17.0382C75.275 17.3089 75.903 17.7308 76.417 18.2736C76.931 18.8164 77.3181 19.4664 77.5505 20.1769C77.7828 20.8874 77.8545 21.6406 77.7605 22.3822C77.7605 26.0302 75.7889 28.1271 72.3876 28.1271H68.2631V16.7084H72.3876ZM70.0366 26.5123H72.1895C72.7223 26.5441 73.2555 26.4568 73.7502 26.2566C74.245 26.0564 74.6889 25.7484 75.0496 25.355C75.4103 24.9616 75.6788 24.4927 75.8355 23.9825C75.9921 23.4723 76.033 22.9335 75.9552 22.4055C76.0274 21.8795 75.9823 21.3441 75.8233 20.8377C75.6642 20.3312 75.3951 19.8661 75.0352 19.4759C74.6753 19.0856 74.2335 18.7798 73.7415 18.5803C73.2496 18.3808 72.7196 18.2927 72.1895 18.3221H70.0366V26.5123Z" fill="black"/>
<path d="M79.7639 23.8146C79.7097 23.2483 79.7745 22.677 79.9541 22.1372C80.1337 21.5974 80.4241 21.1011 80.8067 20.6801C81.1894 20.2591 81.6558 19.9227 82.176 19.6926C82.6962 19.4624 83.2588 19.3435 83.8277 19.3435C84.3966 19.3435 84.9592 19.4624 85.4794 19.6926C85.9997 19.9227 86.4661 20.2591 86.8487 20.6801C87.2313 21.1011 87.5217 21.5974 87.7013 22.1372C87.8809 22.677 87.9457 23.2483 87.8915 23.8146C87.9467 24.3815 87.8827 24.9536 87.7036 25.4943C87.5245 26.035 87.2342 26.5322 86.8515 26.954C86.4688 27.3758 86.0021 27.7129 85.4813 27.9435C84.9605 28.1742 84.3973 28.2934 83.8277 28.2934C83.2582 28.2934 82.6949 28.1742 82.1741 27.9435C81.6534 27.7129 81.1866 27.3758 80.8039 26.954C80.4212 26.5322 80.1309 26.035 79.9518 25.4943C79.7727 24.9536 79.7087 24.3815 79.7639 23.8146ZM86.1423 23.8146C86.1423 21.9467 85.3031 20.8544 83.8305 20.8544C82.3523 20.8544 81.5207 21.9467 81.5207 23.8146C81.5207 25.6975 82.3523 26.7814 83.8305 26.7814C85.3032 26.7814 86.1423 25.69 86.1423 23.8146Z" fill="black"/>
<path d="M98.6953 28.1269H96.9311L95.1501 21.7804H95.0155L93.242 28.1269H91.4946L89.1193 19.5097H90.8443L92.3879 26.0852H92.515L94.2867 19.5097H95.9182L97.6898 26.0852H97.8244L99.3606 19.5097H101.061L98.6953 28.1269Z" fill="black"/>
<path d="M103.059 19.5097H104.696V20.8786H104.823C105.039 20.387 105.402 19.9748 105.863 19.6996C106.324 19.4244 106.86 19.2999 107.395 19.3434C107.814 19.3119 108.235 19.3751 108.627 19.5284C109.018 19.6816 109.37 19.9211 109.657 20.2289C109.943 20.5367 110.157 20.905 110.281 21.3065C110.406 21.708 110.439 22.1325 110.377 22.5484V28.1268H108.677V22.9755C108.677 21.5907 108.075 20.902 106.817 20.902C106.533 20.8888 106.248 20.9372 105.984 21.0441C105.72 21.1509 105.482 21.3136 105.287 21.521C105.091 21.7284 104.943 21.9756 104.852 22.2457C104.761 22.5158 104.729 22.8024 104.76 23.0857V28.1269H103.059L103.059 19.5097Z" fill="black"/>
<path d="M113.087 16.1458H114.788V28.1269H113.087V16.1458Z" fill="black"/>
<path d="M117.152 23.8146C117.098 23.2483 117.163 22.6769 117.342 22.1371C117.522 21.5973 117.812 21.1009 118.195 20.68C118.578 20.259 119.044 19.9226 119.564 19.6924C120.085 19.4622 120.647 19.3433 121.216 19.3433C121.785 19.3433 122.348 19.4622 122.868 19.6924C123.388 19.9226 123.855 20.259 124.237 20.68C124.62 21.1009 124.91 21.5973 125.09 22.1371C125.27 22.6769 125.335 23.2483 125.28 23.8146C125.336 24.3815 125.271 24.9537 125.092 25.4943C124.913 26.035 124.623 26.5322 124.24 26.954C123.857 27.3758 123.391 27.7128 122.87 27.9435C122.349 28.1742 121.786 28.2933 121.216 28.2933C120.647 28.2933 120.083 28.1742 119.563 27.9435C119.042 27.7128 118.575 27.3758 118.192 26.954C117.809 26.5322 117.519 26.035 117.34 25.4943C117.161 24.9537 117.097 24.3815 117.152 23.8146ZM123.53 23.8146C123.53 21.9467 122.691 20.8544 121.218 20.8544C119.74 20.8544 118.909 21.9467 118.909 23.8146C118.909 25.6975 119.74 26.7814 121.218 26.7814C122.691 26.7814 123.53 25.69 123.53 23.8146Z" fill="black"/>
<path d="M127.071 25.69C127.071 24.1389 128.226 23.2446 130.276 23.1175L132.61 22.983V22.2392C132.61 21.3291 132.008 20.8151 130.846 20.8151C129.896 20.8151 129.239 21.1637 129.05 21.7729H127.403C127.577 20.2928 128.97 19.3434 130.924 19.3434C133.085 19.3434 134.303 20.4189 134.303 22.2392V28.127H132.666V26.916H132.532C132.258 27.3504 131.875 27.7045 131.42 27.9422C130.965 28.1799 130.456 28.2926 129.943 28.2689C129.581 28.3066 129.216 28.268 128.87 28.1556C128.524 28.0433 128.205 27.8597 127.935 27.6168C127.664 27.3738 127.447 27.0768 127.299 26.7449C127.15 26.4131 127.072 26.0537 127.071 25.69ZM132.61 24.9537V24.2332L130.506 24.3678C129.319 24.4472 128.781 24.8509 128.781 25.6106C128.781 26.3861 129.454 26.8374 130.379 26.8374C130.65 26.8649 130.924 26.8375 131.184 26.757C131.444 26.6764 131.686 26.5443 131.894 26.3686C132.102 26.1928 132.273 25.977 132.396 25.7339C132.519 25.4908 132.592 25.2255 132.61 24.9537Z" fill="black"/>
<path d="M136.538 23.8146C136.538 21.0917 137.938 19.3668 140.115 19.3668C140.654 19.342 141.188 19.471 141.656 19.7387C142.124 20.0064 142.506 20.4018 142.758 20.8786H142.885V16.1458H144.586V28.1269H142.956V26.7655H142.821C142.55 27.2391 142.155 27.6295 141.678 27.8946C141.201 28.1596 140.661 28.289 140.115 28.2689C137.923 28.269 136.538 26.5441 136.538 23.8146ZM138.295 23.8146C138.295 25.6423 139.157 26.7422 140.597 26.7422C142.031 26.7422 142.917 25.6265 142.917 23.8221C142.917 22.0261 142.022 20.8946 140.597 20.8946C139.166 20.8946 138.295 22.0018 138.295 23.8146Z" fill="black"/>
<path d="M151.622 23.8146C151.568 23.2483 151.632 22.677 151.812 22.1372C151.991 21.5974 152.282 21.1011 152.665 20.6801C153.047 20.2591 153.514 19.9227 154.034 19.6926C154.554 19.4624 155.117 19.3435 155.685 19.3435C156.254 19.3435 156.817 19.4624 157.337 19.6926C157.857 19.9227 158.324 20.2591 158.706 20.6801C159.089 21.1011 159.38 21.5974 159.559 22.1372C159.739 22.677 159.803 23.2483 159.749 23.8146C159.804 24.3815 159.74 24.9536 159.561 25.4943C159.382 26.035 159.092 26.5322 158.709 26.954C158.327 27.3758 157.86 27.7129 157.339 27.9435C156.818 28.1742 156.255 28.2934 155.685 28.2934C155.116 28.2934 154.553 28.1742 154.032 27.9435C153.511 27.7129 153.044 27.3758 152.662 26.954C152.279 26.5322 151.989 26.035 151.81 25.4943C151.63 24.9536 151.567 24.3815 151.622 23.8146ZM158 23.8146C158 21.9467 157.161 20.8544 155.688 20.8544C154.21 20.8544 153.378 21.9467 153.378 23.8146C153.378 25.6975 154.21 26.7814 155.688 26.7814C157.161 26.7814 158 25.69 158 23.8146Z" fill="black"/>
<path d="M162.031 19.5097H163.668V20.8786H163.795C164.011 20.387 164.375 19.9748 164.835 19.6996C165.296 19.4244 165.832 19.2999 166.367 19.3434C166.786 19.3119 167.207 19.3751 167.599 19.5284C167.99 19.6816 168.342 19.9211 168.629 20.2289C168.915 20.5367 169.129 20.905 169.253 21.3065C169.378 21.708 169.411 22.1325 169.349 22.5484V28.1268H167.649V22.9755C167.649 21.5907 167.047 20.902 165.789 20.902C165.505 20.8888 165.22 20.9372 164.956 21.0441C164.692 21.1509 164.454 21.3136 164.259 21.521C164.063 21.7284 163.915 21.9756 163.824 22.2457C163.733 22.5158 163.702 22.8024 163.732 23.0857V28.1269H162.031V19.5097Z" fill="black"/>
<path d="M178.959 17.3643V19.549H180.826V20.9815H178.959V25.4125C178.959 26.3151 179.331 26.7104 180.178 26.7104C180.394 26.7097 180.611 26.6966 180.826 26.6711V28.0877C180.521 28.1423 180.211 28.1714 179.901 28.1746C178.01 28.1746 177.257 27.5093 177.257 25.8479V20.9814H175.889V19.5489H177.257V17.3643H178.959Z" fill="black"/>
<path d="M183.149 16.1458H184.835V20.8945H184.969C185.195 20.3983 185.569 19.9838 186.039 19.7076C186.509 19.4313 187.053 19.3068 187.597 19.3509C188.014 19.3282 188.431 19.3978 188.818 19.5548C189.205 19.7118 189.553 19.9523 189.836 20.2592C190.12 20.566 190.332 20.9316 190.458 21.3299C190.584 21.7282 190.62 22.1494 190.564 22.5634V28.1269H188.862V22.9829C188.862 21.6065 188.221 20.9095 187.019 20.9095C186.727 20.8855 186.433 20.9257 186.158 21.0272C185.883 21.1287 185.633 21.2891 185.427 21.4972C185.22 21.7053 185.061 21.9561 184.962 22.2319C184.862 22.5077 184.824 22.802 184.85 23.0941V28.1269H183.149L183.149 16.1458Z" fill="black"/>
<path d="M200.481 25.8002C200.25 26.5878 199.749 27.269 199.066 27.7248C198.384 28.1805 197.563 28.3818 196.747 28.2933C196.179 28.3083 195.615 28.1995 195.093 27.9746C194.572 27.7497 194.106 27.414 193.727 26.9908C193.348 26.5676 193.066 26.0671 192.9 25.5239C192.734 24.9808 192.688 24.408 192.766 23.8454C192.69 23.2811 192.737 22.7071 192.902 22.1624C193.068 21.6176 193.349 21.1147 193.725 20.6878C194.102 20.261 194.566 19.92 195.086 19.688C195.606 19.4561 196.17 19.3386 196.739 19.3434C199.137 19.3434 200.583 20.9815 200.583 23.6875V24.2809H194.498V24.3762C194.472 24.6924 194.512 25.0107 194.615 25.3107C194.719 25.6107 194.884 25.8857 195.1 26.1181C195.316 26.3506 195.578 26.5353 195.87 26.6604C196.162 26.7856 196.476 26.8484 196.793 26.8449C197.2 26.8937 197.612 26.8205 197.977 26.6344C198.342 26.4484 198.644 26.158 198.844 25.8002L200.481 25.8002ZM194.498 23.0232H198.851C198.872 22.7339 198.833 22.4434 198.736 22.1703C198.638 21.8972 198.484 21.6475 198.285 21.4373C198.085 21.227 197.843 21.0609 197.576 20.9496C197.308 20.8383 197.02 20.7842 196.73 20.7908C196.436 20.7871 196.144 20.8424 195.871 20.9532C195.599 21.0641 195.351 21.2284 195.143 21.4365C194.935 21.6445 194.771 21.8921 194.661 22.1646C194.55 22.4371 194.495 22.729 194.498 23.0232Z" fill="black"/>
</svg>
