<svg width="144" height="143" viewBox="0 0 144 143" fill="none" xmlns="http://www.w3.org/2000/svg">
<rect x="2" y="1.5" width="140" height="140" rx="34.5" fill="#8C81BF"/>
<rect x="2" y="1.5" width="140" height="140" rx="34.5" stroke="#E4E5E6" stroke-width="3"/>
<path d="M9.27876 70.0486L9 72L9.27876 73.6725L10.115 75.0664L10.9513 75.9027L11.7876 76.4602L14.0177 77.5752L19.0354 78.6903L30.1858 80.9204L39.9425 83.708L43.0089 84.823L47.1903 86.7743L51.3717 89.8407L53.323 91.2345L55.8319 94.0221L58.6195 97.646L60.8496 101.827L62.2434 105.451L63.0796 108.518L64.4734 114.372L65.8673 121.062L66.4248 125.522L67.2611 129.425L67.8186 131.097L68.3761 132.212L69.4911 133.606L70.6062 134.721L73.115 135L74.2301 134.721L75.3451 134.164L77.0177 131.934L77.5752 130.54L78.4115 126.08L80.0841 116.881L82.0354 108.239L84.5788 101.549L86.4956 97.9248L89.8407 93.4646L93.4646 90.1195L97.0885 87.3319L99.8761 85.6593L108.239 82.3142L113.257 81.1991L121.898 79.2478L127.195 78.1327L129.982 77.5752L131.655 77.0177L133.049 76.4602L134.164 75.0664L135 73.3938L135.279 72.2788V71.1637L135 69.7699L134.164 68.3761L133.049 67.2611L131.097 66.146L126.916 65.031L121.898 63.9159L112.142 61.6858L109.354 61.1283L106.566 60.292L103.221 59.177L99.0398 57.0769L97.3673 56.1106L93.7434 53.6018L90.677 50.8142L86.6942 45.7965L84.2655 41.3363L82.0354 35.2035L78.4115 17.9204L77.5752 14.5752L77.2965 12.9027L76.4602 11.5088L75.3451 9.83628L74.2301 9.27876L73.115 9H71.7212L69.4911 10.115L68.3761 11.2301L67.5398 12.9027L66.7035 18.1991L64.4734 29.9071L63.6372 34.3673L62.8009 36.8761L61.4071 40.2212L59.4558 44.1239L58.3407 46.0752L56.3894 48.8628L54.7168 50.5354L52.7655 52.208L49.4204 54.9956L43.2876 58.3407L38.5487 60.0133L35.4823 60.8496L31.3009 61.9646L15.4115 65.5166L13.4602 65.8672L12.3451 66.4248L11.2301 67.261L10.115 68.3761L9.27876 70.0486Z" fill="#E4E5E6"/>
<path d="M80.3628 72C80.3628 76.6187 76.6187 80.3628 72 80.3628C67.3813 80.3628 63.6372 76.6187 63.6372 72C63.6372 67.3813 67.3813 63.6372 72 63.6372C76.6187 63.6372 80.3628 67.3813 80.3628 72Z" fill="#FA7F66"/>
</svg>
