<svg width="360" height="367" viewBox="0 0 360 367" fill="none" xmlns="http://www.w3.org/2000/svg">
<path d="M20.8818 39.5394C25.0738 43.6638 31.4459 42.9426 35.6624 42.4667C37.2147 42.29 38.6873 42.1261 39.4295 42.302C39.6144 43.0197 39.4736 44.5014 39.3223 46.0657C38.914 50.2903 38.2983 56.6751 42.4893 60.7986C48.8317 67.0388 57.7134 68.3346 62.2879 63.6851C66.8625 59.0356 65.4234 50.1771 59.0801 43.9361C54.8881 39.8116 48.5151 40.532 44.2976 41.0088C42.7453 41.1836 41.2746 41.3494 40.5324 41.1735C40.3475 40.4558 40.4873 38.9732 40.6396 37.4079C41.046 33.1833 41.6627 26.7994 37.4726 22.6769C31.1293 16.4358 22.2485 15.1409 17.674 19.7903C13.1004 24.4389 14.5385 33.2984 20.8818 39.5394Z" fill="#E4E5E6"/>
<path d="M301.81 322.392C306.002 326.516 312.374 325.795 316.591 325.319C318.143 325.142 319.616 324.979 320.358 325.155C320.543 325.872 320.402 327.354 320.251 328.918C319.842 333.143 319.227 339.528 323.418 343.651C329.76 349.891 338.642 351.187 343.216 346.538C347.791 341.888 346.352 333.03 340.008 326.789C335.816 322.664 329.443 323.384 325.226 323.861C323.674 324.036 322.203 324.202 321.461 324.026C321.276 323.308 321.416 321.826 321.568 320.26C321.974 316.036 322.591 309.652 318.401 305.529C312.058 299.288 303.177 297.993 298.602 302.643C294.029 307.291 295.467 316.151 301.81 322.392Z" fill="#E4E5E6"/>
<path d="M322.054 26.9895C317.895 31.1479 318.565 37.5256 319.007 41.7458C319.171 43.2995 319.323 44.7734 319.141 45.5141C318.421 45.6932 316.941 45.5404 315.378 45.3763C311.157 44.9337 304.777 44.2662 300.62 48.4236C294.328 54.715 292.96 63.5859 297.572 68.1981C302.185 72.8102 311.055 71.4432 317.347 65.1508C321.505 60.9924 320.837 54.6138 320.394 50.3926C320.232 48.8389 320.078 47.3669 320.26 46.6262C320.979 46.4471 322.461 46.599 324.025 46.764C328.246 47.2047 334.625 47.8732 338.781 43.7167C345.073 37.4243 346.44 28.5544 341.828 23.9422C337.217 19.331 328.346 20.6971 322.054 26.9895Z" fill="#E4E5E6"/>
<path d="M47.8601 305.032C43.7017 309.19 44.3712 315.568 44.8128 319.788C44.9769 321.342 45.1288 322.816 44.9469 323.556C44.2277 323.735 42.7472 323.582 41.1842 323.418C36.963 322.976 30.5834 322.308 26.426 326.466C20.1346 332.757 18.7666 341.628 23.3787 346.24C27.9909 350.852 36.8608 349.485 43.1532 343.193C47.3116 339.035 46.6431 332.656 46.2005 328.435C46.0383 326.881 45.8845 325.409 46.0664 324.668C46.7856 324.489 48.267 324.641 49.831 324.806C54.0522 325.247 60.4308 325.915 64.5873 321.759C70.8797 315.466 72.2467 306.596 67.6346 301.984C63.0233 297.373 54.1525 298.739 47.8601 305.032Z" fill="#E4E5E6"/>
<path d="M327.535 193.454C322.708 188.627 322.708 180.801 327.535 175.974C332.362 171.148 340.187 171.148 345.014 175.974C349.841 180.801 349.841 188.627 345.014 193.454C340.187 198.28 332.362 198.28 327.535 193.454Z" fill="#8C81BF"/>
<path d="M16.33 195.622C11.5032 190.795 11.5032 182.97 16.33 178.143C21.1567 173.316 28.9825 173.316 33.8092 178.143C38.636 182.97 38.636 190.795 33.8092 195.622C28.9825 200.449 21.1567 200.449 16.33 195.622Z" fill="#8C81BF"/>
<path d="M168.137 350.683C163.31 345.856 163.31 338.03 168.137 333.204C172.964 328.377 180.79 328.377 185.616 333.204C190.443 338.03 190.443 345.856 185.616 350.683C180.79 355.51 172.964 355.51 168.137 350.683Z" fill="#8C81BF"/>
<path d="M171.39 32.9717C166.563 28.145 166.563 20.3192 171.39 15.4925C176.217 10.6657 184.043 10.6657 188.869 15.4925C193.696 20.3192 193.696 28.145 188.869 32.9717C184.043 37.7985 176.217 37.7985 171.39 32.9717Z" fill="#8C81BF"/>
<path fill-rule="evenodd" clip-rule="evenodd" d="M319.888 175.471C328.838 167.381 342.367 167.381 351.317 175.471L359.463 182.837C359.805 183.144 360 183.583 360 184.042C360 184.502 359.805 184.941 359.463 185.248L351.317 192.614C342.367 200.704 328.838 200.704 319.888 192.614L311.742 185.248C311.4 184.941 311.205 184.502 311.205 184.042C311.205 183.583 311.4 183.144 311.742 182.837L319.888 175.471ZM335.602 175.91C340.093 175.91 343.735 179.551 343.735 184.043C343.735 188.534 340.093 192.175 335.602 192.175C331.111 192.175 327.47 188.534 327.47 184.043C327.47 179.551 331.111 175.91 335.602 175.91Z" fill="#E4E5E6"/>
<path fill-rule="evenodd" clip-rule="evenodd" d="M171.971 40.3586C163.881 31.4089 163.881 17.8799 171.971 8.93018L179.337 0.783549C179.644 0.44198 180.083 0.246826 180.543 0.246826C181.002 0.246826 181.441 0.442006 181.748 0.783549L189.114 8.93018C197.204 17.8799 197.204 31.4089 189.114 40.3586L181.748 48.5053C181.441 48.8468 181.002 49.042 180.543 49.042C180.083 49.042 179.644 48.8468 179.337 48.5053L171.971 40.3586ZM172.41 24.6447C172.41 20.1535 176.052 16.5121 180.543 16.5121C185.034 16.5121 188.675 20.1535 188.675 24.6447C188.675 29.1359 185.034 32.7772 180.543 32.7772C176.052 32.7772 172.41 29.1359 172.41 24.6447Z" fill="#E4E5E6"/>
<path fill-rule="evenodd" clip-rule="evenodd" d="M8.68336 178.724C17.6331 170.634 31.1621 170.634 40.1118 178.724L48.2584 186.09C48.6 186.397 48.7952 186.836 48.7952 187.295C48.7952 187.755 48.6 188.194 48.2584 188.501L40.1118 195.867C31.1621 203.957 17.6331 203.957 8.68336 195.867L0.536724 188.501C0.195156 188.194 0 187.755 0 187.295C0 186.836 0.195182 186.397 0.536724 186.09L8.68336 178.724ZM24.3973 179.163C28.8885 179.163 32.5299 182.804 32.5299 187.296C32.5299 191.787 28.8885 195.428 24.3973 195.428C19.9061 195.428 16.2647 191.787 16.2647 187.296C16.2647 182.804 19.9061 179.163 24.3973 179.163Z" fill="#E4E5E6"/>
<path fill-rule="evenodd" clip-rule="evenodd" d="M170.887 358.07C162.797 349.12 162.797 335.591 170.887 326.641L178.253 318.495C178.56 318.153 178.999 317.958 179.458 317.958C179.918 317.958 180.357 318.153 180.664 318.495L188.03 326.641C196.12 335.591 196.12 349.12 188.03 358.07L180.664 366.216C180.357 366.558 179.918 366.753 179.458 366.753C178.999 366.753 178.56 366.558 178.253 366.216L170.887 358.07ZM171.326 342.356C171.326 337.865 174.967 334.223 179.458 334.223C183.95 334.223 187.591 337.865 187.591 342.356C187.591 346.847 183.95 350.488 179.458 350.488C174.967 350.488 171.326 346.847 171.326 342.356Z" fill="#E4E5E6"/>
<path d="M68.4956 179.531L68 183L68.4956 185.973L69.9823 188.451L71.469 189.938L72.9558 190.929L76.9204 192.912L85.8407 194.894L105.664 198.858L123.009 203.814L128.46 205.796L135.894 209.265L143.327 214.717L146.796 217.195L151.257 222.15L156.212 228.593L160.177 236.027L162.655 242.469L164.142 247.92L166.619 258.327L169.097 270.221L170.088 278.15L171.575 285.089L172.566 288.062L173.558 290.044L175.54 292.522L177.522 294.504L181.982 295L183.965 294.504L185.947 293.513L188.92 289.549L189.912 287.071L191.398 279.142L194.372 262.788L197.841 247.425L202.362 235.531L205.77 229.089L211.717 221.159L218.159 215.212L224.602 210.257L229.558 207.283L244.425 201.336L253.345 199.354L268.708 195.885L278.124 193.903L283.08 192.912L286.053 191.92L288.531 190.929L290.513 188.451L292 185.478L292.496 183.496V181.513L292 179.035L290.513 176.558L288.531 174.575L285.062 172.593L277.628 170.611L268.708 168.628L251.363 164.664L246.407 163.673L241.451 162.186L235.504 160.204L228.071 156.47L225.097 154.752L218.655 150.292L213.204 145.336L206.123 136.416L201.805 128.487L197.841 117.584L191.398 86.8584L189.912 80.9115L189.416 77.9381L187.929 75.4602L185.947 72.4867L183.965 71.4956L181.982 71H179.504L175.54 72.9823L173.558 74.9646L172.071 77.9381L170.584 87.354L166.619 108.168L165.133 116.097L163.646 120.558L161.168 126.504L157.699 133.442L155.717 136.912L152.248 141.867L149.274 144.841L145.805 147.814L139.858 152.77L128.956 158.717L120.531 161.69L115.08 163.177L107.646 165.159L79.3982 171.474L75.9292 172.097L73.9469 173.088L71.9646 174.575L69.9823 176.557L68.4956 179.531Z" fill="#E4E5E6"/>
<path d="M194.867 183C194.867 191.211 188.211 197.867 180 197.867C171.789 197.867 165.133 191.211 165.133 183C165.133 174.789 171.789 168.133 180 168.133C188.211 168.133 194.867 174.789 194.867 183Z" fill="#8C81BF"/>
</svg>
