<svg width="262" height="107" viewBox="0 0 262 107" fill="none" xmlns="http://www.w3.org/2000/svg">
<path d="M77.8786 9.19704C112.869 28.3564 112.842 78.8258 77.8786 98.0123H184.121C149.131 78.8258 149.131 28.3835 184.121 9.19704H77.8786ZM53.6046 104.209C25.6774 104.209 3 81.5319 3 53.6046C3 25.6503 25.6503 3 53.6046 3H208.395C236.35 3 259 25.6503 259 53.6046C259 81.5319 236.323 104.209 208.395 104.209H53.6046ZM208.395 9.19704C183.851 9.19704 163.988 29.06 163.988 53.6046C163.988 78.1222 183.851 98.0123 208.395 98.0123C232.94 98.0123 252.803 78.1493 252.803 53.6046C252.803 29.06 232.913 9.19704 208.395 9.19704ZM53.6046 9.19704C29.0871 9.19704 9.19704 29.06 9.19704 53.6046C9.19704 78.1493 29.06 98.0123 53.6046 98.0123C78.1493 98.0123 98.0123 78.1493 98.0123 53.6046C98.0123 29.06 78.1493 9.19704 53.6046 9.19704Z" fill="#E4E5E6" stroke="#E4E5E6" stroke-width="5"/>
</svg>
