<svg width="256" height="136" viewBox="0 0 256 136" fill="none" xmlns="http://www.w3.org/2000/svg">
<path d="M98.1171 68.0749C98.1171 84.3746 111.54 98.1174 128.16 98.1174C144.459 98.1174 158.202 84.6942 158.202 68.0749C158.202 51.7753 144.779 38.0325 128.16 38.0325C111.54 38.0325 98.1171 51.7753 98.1171 68.0749Z" fill="#E4E5E6"/>
<path d="M253.763 63.6005C250.886 61.0437 183.131 0 127.84 0C72.5493 0 4.79401 60.7241 1.9176 63.2809C0.639202 64.5593 0 66.4769 0 68.0749C0 69.6729 0.6392 71.5905 2.2372 72.5493C5.11361 75.1061 72.8689 135.83 128.16 135.83C183.451 135.83 251.206 75.1061 254.082 72.5493C255.361 71.5905 256 69.6729 256 68.0749C255.68 66.4769 255.041 64.5593 253.763 63.6005ZM127.84 123.685C85.6529 123.685 32.2797 82.1373 15.6604 68.0749C32.5993 54.0125 85.6529 12.4644 127.84 12.4644C170.027 12.4644 223.081 54.0125 240.02 68.0749C223.401 82.1373 170.027 123.685 127.84 123.685Z" fill="#E4E5E6"/>
</svg>
