<svg width="256" height="129" viewBox="0 0 256 129" fill="none" xmlns="http://www.w3.org/2000/svg">
<path fill-rule="evenodd" clip-rule="evenodd" d="M4.41379 108.12C10.7697 108.156 16.8611 111.095 21.3631 116.198L22.4224 117.407C28.5134 124.284 36.7229 128.115 45.3739 128.141C53.9367 128.168 62.2344 124.381 68.3254 117.539L69.2963 116.454C73.8867 111.281 80.0656 108.332 86.5981 108.332C93.0422 108.332 99.3105 111.281 103.901 116.454V116.507C110.257 123.63 118.907 127.585 127.823 127.585C136.827 127.585 145.39 123.63 151.746 116.507L151.834 116.454C156.424 111.281 162.604 108.332 169.137 108.332C175.581 108.332 181.848 111.281 186.439 116.454V116.507C192.794 123.63 201.357 127.585 210.361 127.585C219.277 127.585 227.929 123.63 234.284 116.507V116.454C238.875 111.281 245.142 108.332 251.586 108.332C254.058 108.332 256 106.355 256 103.918C256 101.482 254.058 99.5047 251.586 99.5047C242.67 99.5047 234.02 103.459 227.664 110.583V110.645C223.073 115.809 216.893 118.758 210.361 118.758C203.829 118.758 197.65 115.809 193.059 110.645L192.971 110.583C186.703 103.459 178.053 99.5047 169.137 99.5047C160.133 99.5047 151.569 103.459 145.213 110.583L145.125 110.645C140.535 115.809 134.356 118.758 127.823 118.758C121.379 118.758 115.112 115.809 110.522 110.645V110.583C104.166 103.459 95.5139 99.5047 86.5981 99.5047C77.5939 99.5047 69.0315 103.459 62.6756 110.583L61.7047 111.678C57.3792 116.56 51.465 119.331 45.3739 119.314C39.1946 119.296 33.3686 116.48 29.0431 111.572L27.9838 110.363C21.8045 103.301 13.3297 99.3457 4.50216 99.2928C2.03043 99.2751 0 101.244 0 103.68C0 106.117 1.94207 108.103 4.41379 108.12ZM4.41379 58.4741C10.7697 58.5094 16.8611 61.4401 21.3631 66.5424L22.4224 67.7518C28.5134 74.6374 36.7229 78.4685 45.3739 78.495C53.9367 78.5215 62.2344 74.7344 68.3254 67.8931L69.2963 66.8073C73.8867 61.6343 80.0656 58.6859 86.5981 58.6859C93.0422 58.6859 99.3105 61.6343 103.901 66.8073V66.8602C110.257 73.9841 118.907 77.9389 127.823 77.9389C136.827 77.9389 145.39 73.9841 151.746 66.8602L151.834 66.8073C156.424 61.6343 162.604 58.6859 169.137 58.6859C175.581 58.6859 181.848 61.6343 186.439 66.8073V66.8602C192.794 73.9841 201.357 77.9389 210.361 77.9389C219.277 77.9389 227.929 73.9841 234.284 66.8602V66.8073C238.875 61.6343 245.142 58.6859 251.586 58.6859C254.058 58.6859 256 56.7085 256 54.2721C256 51.8357 254.058 49.8583 251.586 49.8583C242.67 49.8583 234.02 53.8131 227.664 60.9369V60.9899C223.073 66.1629 216.893 69.1113 210.361 69.1113C203.829 69.1113 197.65 66.1629 193.059 60.9899L192.971 60.9369C186.703 53.8131 178.053 49.8583 169.137 49.8583C160.133 49.8583 151.569 53.8131 145.213 60.9369L145.125 60.9899C140.535 66.1629 134.356 69.1113 127.823 69.1113C121.379 69.1113 115.112 66.1629 110.522 60.9899V60.9369C104.166 53.8131 95.5139 49.8583 86.5981 49.8583C77.5939 49.8583 69.0315 53.8131 62.6756 60.9369L61.7047 62.0316C57.3792 66.9044 51.465 69.6851 45.3739 69.6674C39.1946 69.6498 33.3686 66.8338 29.0431 61.9256L27.9838 60.7162C21.8045 53.6542 13.3297 49.6994 4.50216 49.6465C2.03043 49.6288 0 51.5973 0 54.0338C0 56.4702 1.94207 58.4564 4.41379 58.4741ZM4.41379 8.8277C10.7697 8.86301 16.8611 11.7938 21.3631 16.8961L22.4224 18.1055C28.5134 24.991 36.7229 28.8222 45.3739 28.8486C53.9367 28.8751 62.2344 25.0881 68.3254 18.2467L69.2963 17.1609C73.8867 11.988 80.0656 9.03955 86.5981 9.03955C93.0422 9.03955 99.3105 11.988 103.901 17.1609V17.2139C110.257 24.3378 118.907 28.2925 127.823 28.2925C136.827 28.2925 145.39 24.3378 151.746 17.2139L151.834 17.1609C156.424 11.988 162.604 9.03955 169.137 9.03955C175.581 9.03955 181.848 11.988 186.439 17.1609V17.2139C192.794 24.3378 201.357 28.2925 210.361 28.2925C219.277 28.2925 227.929 24.3378 234.284 17.2139V17.1609C238.875 11.988 245.142 9.03955 251.586 9.03955C254.058 9.03955 256 7.06217 256 4.62576C256 2.18934 254.058 0.211965 251.586 0.211965C242.67 0.211965 234.02 4.16673 227.664 11.2906V11.3436C223.073 16.5165 216.893 19.4649 210.361 19.4649C203.829 19.4649 197.65 16.5165 193.059 11.3436L192.971 11.2906C186.703 4.16673 178.053 0.211965 169.137 0.211965C160.133 0.211965 151.569 4.16673 145.213 11.2906L145.125 11.3436C140.535 16.5165 134.356 19.4649 127.823 19.4649C121.379 19.4649 115.112 16.5165 110.522 11.3436V11.2906C104.166 4.16673 95.5139 0.211965 86.5981 0.211965C77.5939 0.211965 69.0315 4.16673 62.6756 11.2906L61.7047 12.3764C57.3792 17.2581 51.465 20.0387 45.3739 20.0211C39.1946 20.0034 33.3686 17.1874 29.0431 12.2793L27.9838 11.0699C21.8045 4.00782 13.3297 0.0530834 4.50216 0.000117836C2.03043 -0.0175373 0 1.951 0 4.38741C0 6.82382 1.94207 8.81005 4.41379 8.8277Z" fill="#E4E5E6"/>
</svg>
