<svg width="137" height="170" viewBox="0 0 137 170" fill="none" xmlns="http://www.w3.org/2000/svg">
<path d="M59.2975 80.6965V79.4894L58.4439 80.343L15.4186 123.368C12.0058 126.781 6.47248 126.781 3.05963 123.368C-0.35321 119.955 -0.353211 114.422 3.05963 111.009L61.8571 52.2118C65.2699 48.799 70.8033 48.799 74.2161 52.2118L133.014 111.009C136.426 114.422 136.426 119.955 133.014 123.368C129.601 126.781 124.067 126.781 120.655 123.368L77.6293 80.343L76.7757 79.4894V80.6965V131.428H76.7755L76.739 131.889C76.5025 134.867 74.003 137.211 70.9669 137.206L65.0608 137.195C62.036 137.189 59.5663 134.854 59.3423 131.891L59.3073 131.428H59.2975V80.6965ZM0.5 160.022C0.5 154.787 4.74356 150.543 9.97826 150.543H126.022C131.256 150.543 135.5 154.787 135.5 160.022C135.5 165.256 131.256 169.5 126.022 169.5H9.97826C4.74356 169.5 0.5 165.256 0.5 160.022ZM85.9783 18.4783C85.9783 28.4074 77.9291 36.4565 68 36.4565C58.0709 36.4565 50.0217 28.4074 50.0217 18.4783C50.0217 8.54914 58.0709 0.5 68 0.5C77.9291 0.5 85.9783 8.54914 85.9783 18.4783Z" fill="#E4E5E6" stroke="black"/>
</svg>
