<svg width="1024" height="1024" viewBox="0 0 1024 1024" fill="none" xmlns="http://www.w3.org/2000/svg">
<rect width="1024" height="1024" rx="36" fill="black"/>
<path d="M200.382 501.821L199 511.5L200.382 519.796L204.528 526.71L208.673 530.858L212.819 533.624L223.874 539.155L248.748 544.686L304.024 555.748L352.391 569.575L367.592 575.106L388.32 584.785L409.049 599.996L418.722 606.909L431.159 620.737L444.978 638.712L456.033 659.454L462.943 677.429L467.088 692.639L473.998 721.677L480.907 754.863L483.671 776.987L487.817 796.345L490.581 804.642L493.344 810.173L498.872 817.086L504.4 822.617L516.837 824L522.364 822.617L527.892 819.852L536.183 808.79L538.947 801.876L543.093 779.752L551.384 734.122L561.057 691.257L573.666 658.071L583.168 640.095L599.751 617.971L617.715 601.378L635.68 587.551L649.499 579.254L690.956 562.661L715.83 557.131L758.669 547.451L784.925 541.92L798.744 539.155L807.035 536.389L813.945 533.624L819.472 526.71L823.618 518.414L825 512.883V507.352L823.618 500.438L819.472 493.524L813.945 487.993L804.271 482.462L783.543 476.931L758.669 471.4L710.302 460.339L696.483 457.573L682.664 453.425L666.082 447.894L645.353 437.477L637.062 432.684L619.097 420.239L603.896 406.411L584.153 381.522L572.113 359.398L561.057 328.978L543.093 243.248L538.947 226.655L537.565 218.358L533.419 211.445L527.892 203.148L522.364 200.383L516.837 199H509.927L498.872 204.531L493.344 210.062L489.199 218.358L485.053 244.631L473.998 302.706L469.852 324.83L465.706 337.274L458.797 353.867L449.124 373.226L443.596 382.905L433.923 396.732L425.631 405.029L415.958 413.325L399.375 427.153L368.974 443.746L345.481 452.042L330.28 456.19L309.552 461.721L230.784 479.34L221.11 481.08L215.583 483.845L210.055 487.993L204.528 493.524L200.382 501.821Z" fill="#E4E5E6"/>
<path d="M552.766 511.5C552.766 534.41 534.205 552.982 511.309 552.982C488.413 552.982 469.852 534.41 469.852 511.5C469.852 488.59 488.413 470.018 511.309 470.018C534.205 470.018 552.766 488.59 552.766 511.5Z" fill="#FA7F66"/>
<path d="M249.652 275.963C256.531 282.727 266.988 281.544 273.908 280.764C276.455 280.474 278.872 280.206 280.089 280.494C280.393 281.671 280.162 284.101 279.913 286.666C279.243 293.594 278.233 304.065 285.111 310.827C295.519 321.061 310.094 323.186 317.601 315.561C325.108 307.936 322.746 293.409 312.337 283.174C305.457 276.41 294.999 277.591 288.078 278.373C285.531 278.66 283.117 278.932 281.899 278.643C281.596 277.466 281.825 275.035 282.075 272.468C282.742 265.54 283.754 255.071 276.878 248.31C266.469 238.075 251.895 235.951 244.388 243.576C236.883 251.199 239.243 265.728 249.652 275.963Z" fill="#E4E5E6"/>
<path d="M710.663 739.827C717.542 746.591 727.999 745.408 734.918 744.627C737.465 744.337 739.882 744.069 741.1 744.357C741.403 745.534 741.172 747.964 740.924 750.529C740.254 757.458 739.244 767.928 746.121 774.691C756.529 784.924 771.104 787.049 778.611 779.424C786.118 771.799 783.757 757.272 773.347 747.037C766.468 740.273 756.01 741.454 749.089 742.236C746.541 742.523 744.128 742.795 742.91 742.507C742.606 741.33 742.836 738.898 743.086 736.331C743.753 729.403 744.765 718.934 737.889 712.173C727.479 701.938 712.906 699.814 705.399 707.439C697.893 715.063 700.253 729.592 710.663 739.827Z" fill="#E4E5E6"/>
<path d="M743.883 255.382C737.059 262.202 738.158 272.661 738.883 279.582C739.152 282.13 739.401 284.547 739.103 285.762C737.922 286.055 735.493 285.805 732.928 285.536C726.001 284.81 715.532 283.715 708.709 290.533C698.385 300.851 696.14 315.398 703.709 322.962C711.277 330.526 725.833 328.284 736.159 317.965C742.983 311.145 741.886 300.685 741.16 293.762C740.894 291.214 740.641 288.8 740.94 287.585C742.12 287.292 744.551 287.541 747.117 287.811C754.045 288.534 764.512 289.63 771.333 282.814C781.659 272.495 783.902 257.949 776.334 250.385C768.766 242.823 754.209 245.063 743.883 255.382Z" fill="#E4E5E6"/>
<path d="M293.924 711.357C287.1 718.176 288.199 728.635 288.924 735.556C289.193 738.104 289.442 740.521 289.144 741.736C287.963 742.03 285.534 741.779 282.969 741.51C276.042 740.784 265.573 739.69 258.75 746.507C248.426 756.825 246.181 771.373 253.75 778.937C261.318 786.5 275.874 784.258 286.2 773.939C293.024 767.12 291.927 756.659 291.201 749.737C290.935 747.189 290.682 744.775 290.981 743.56C292.161 743.266 294.592 743.515 297.159 743.786C304.086 744.509 314.553 745.605 321.374 738.788C331.7 728.469 333.943 713.923 326.375 706.359C318.808 698.797 304.25 701.038 293.924 711.357Z" fill="#E4E5E6"/>
<path d="M889.033 536.947C876.698 524.607 876.698 504.6 889.033 492.26C901.368 479.92 921.368 479.92 933.703 492.26C946.038 504.6 946.038 524.607 933.703 536.947C921.368 549.287 901.368 549.287 889.033 536.947Z" fill="#FA7F66"/>
<path d="M93.7322 542.491C81.3971 530.151 81.3971 510.144 93.7322 497.804C106.067 485.464 126.066 485.464 138.401 497.804C150.736 510.144 150.736 530.151 138.401 542.491C126.066 554.831 106.067 554.831 93.7322 542.491Z" fill="#FA7F66"/>
<path d="M481.684 938.915C469.349 926.575 469.349 906.568 481.684 894.228C494.019 881.888 514.018 881.888 526.353 894.228C538.688 906.568 538.688 926.575 526.353 938.915C514.018 951.255 494.019 951.255 481.684 938.915Z" fill="#FA7F66"/>
<path d="M489.997 126.664C477.662 114.324 477.662 94.3166 489.997 81.9766C502.332 69.6367 522.331 69.6367 534.666 81.9766C547.001 94.3166 547.001 114.324 534.666 126.664C522.331 139.004 502.332 139.004 489.997 126.664Z" fill="#FA7F66"/>
<path fill-rule="evenodd" clip-rule="evenodd" d="M869.492 490.973C892.364 470.29 926.938 470.29 949.809 490.973L970.628 509.804C971.501 510.589 972 511.712 972 512.887C972 514.061 971.501 515.184 970.628 515.969L949.809 534.8C926.938 555.483 892.364 555.483 869.492 534.8L848.673 515.969C847.8 515.184 847.301 514.061 847.301 512.887C847.301 511.712 847.8 510.589 848.673 509.804L869.492 490.973ZM909.65 492.095C921.128 492.095 930.433 501.405 930.433 512.887C930.433 524.369 921.128 533.679 909.65 533.679C898.172 533.679 888.867 524.369 888.867 512.887C888.867 501.405 898.172 492.095 909.65 492.095Z" fill="#E4E5E6"/>
<path fill-rule="evenodd" clip-rule="evenodd" d="M491.481 145.549C470.807 122.668 470.807 88.0803 491.481 65.1996L510.305 44.3722C511.09 43.4989 512.212 43 513.386 43C514.561 43 515.683 43.499 516.468 44.3722L535.292 65.1996C555.966 88.0803 555.966 122.668 535.292 145.549L516.468 166.376C515.683 167.249 514.561 167.748 513.386 167.748C512.212 167.748 511.09 167.249 510.305 166.376L491.481 145.549ZM492.604 105.375C492.604 93.8927 501.909 84.5833 513.387 84.5833C524.865 84.5833 534.17 93.8927 534.17 105.375C534.17 116.857 524.865 126.166 513.387 126.166C501.909 126.166 492.604 116.857 492.604 105.375Z" fill="#E4E5E6"/>
<path fill-rule="evenodd" clip-rule="evenodd" d="M74.1908 499.289C97.0624 478.607 131.636 478.607 154.508 499.289L175.327 518.121C176.2 518.906 176.699 520.028 176.699 521.203C176.699 522.378 176.2 523.501 175.327 524.285L154.508 543.117C131.636 563.799 97.0624 563.799 74.1908 543.117L53.3716 524.285C52.4987 523.501 52 522.378 52 521.203C52 520.028 52.4988 518.906 53.3716 518.121L74.1908 499.289ZM114.349 500.412C125.826 500.412 135.132 509.721 135.132 521.204C135.132 532.686 125.826 541.995 114.349 541.995C102.871 541.995 93.5655 532.686 93.5655 521.204C93.5655 509.721 102.871 500.412 114.349 500.412Z" fill="#E4E5E6"/>
<path fill-rule="evenodd" clip-rule="evenodd" d="M488.71 957.8C468.036 934.92 468.036 900.332 488.71 877.451L507.534 856.624C508.319 855.751 509.441 855.252 510.615 855.252C511.79 855.252 512.912 855.751 513.697 856.624L532.521 877.451C553.195 900.332 553.195 934.92 532.521 957.8L513.697 978.628C512.912 979.501 511.79 980 510.615 980C509.441 980 508.319 979.501 507.534 978.628L488.71 957.8ZM489.833 917.626C489.833 906.144 499.138 896.835 510.616 896.835C522.093 896.835 531.399 906.144 531.399 917.626C531.399 929.109 522.093 938.418 510.616 938.418C499.138 938.418 489.833 929.109 489.833 917.626Z" fill="#E4E5E6"/>
</svg>
