<svg width="45" height="45" viewBox="0 0 45 45" fill="none" xmlns="http://www.w3.org/2000/svg">
<path id="Exclude" fill-rule="evenodd" clip-rule="evenodd" d="M22.5 45C34.9264 45 45 34.9264 45 22.5C45 10.0736 34.9264 0 22.5 0C10.0736 0 0 10.0736 0 22.5C0 34.9264 10.0736 45 22.5 45ZM22.0366 6.9287C22.1452 6.02222 22.26 5.0637 22.3876 4.05C22.4953 4.95033 22.5939 5.80727 22.6876 6.623C23.9607 17.6969 24.3607 21.1765 35.1001 22.5191C24.3899 24.355 23.9751 27.8068 22.6707 38.6607C22.5816 39.4015 22.4885 40.1767 22.3876 40.9882C22.3646 40.7453 22.3419 40.5057 22.3195 40.2691C21.1786 28.2044 20.8073 24.2786 9.67511 22.5191C20.3308 21.1685 20.7378 17.7706 22.0366 6.9287Z" fill="white"/>
</svg>
