<svg width="326" height="354" viewBox="0 0 326 354" fill="none" xmlns="http://www.w3.org/2000/svg">
<g filter="url(#filter0_df_1490_65)">
<mask id="mask0_1490_65" style="mask-type:luminance" maskUnits="userSpaceOnUse" x="53" y="63" width="220" height="220">
<path d="M53 63H273V283H53V63Z" fill="white"/>
</mask>
<g mask="url(#mask0_1490_65)">
<path fill-rule="evenodd" clip-rule="evenodd" d="M163.108 95.0839C170.27 95.0839 172.357 95.1428 174.223 95.5904C176.093 96.0395 177.881 96.7803 179.522 97.7855C181.156 98.7874 182.674 100.222 187.739 105.286L216.964 134.512C222.029 139.576 223.463 141.094 224.465 142.729C225.47 144.369 226.211 146.158 226.66 148.028C227.108 149.893 227.167 151.98 227.167 159.143V216.084C227.167 223.936 227.159 229.274 226.822 233.399C226.494 237.419 225.899 239.474 225.168 240.907C223.411 244.357 220.606 247.161 217.157 248.919C215.723 249.65 213.668 250.245 209.649 250.573C205.523 250.91 200.185 250.917 192.333 250.917H133.667C125.815 250.917 120.477 250.91 116.351 250.573C112.332 250.245 110.277 249.65 108.844 248.919C105.394 247.161 102.589 244.357 100.832 240.907C100.101 239.474 99.5059 237.419 99.1775 233.399C98.8405 229.274 98.8333 223.936 98.8333 216.084V129.917C98.8333 122.065 98.8405 116.728 99.1775 112.602C99.5059 108.583 100.101 106.528 100.832 105.094C102.589 101.644 105.394 98.8397 108.844 97.0821C110.277 96.3516 112.332 95.7564 116.351 95.4281C120.477 95.091 125.815 95.0839 133.667 95.0839H163.108ZM178.502 77.7637C174.26 76.7454 169.863 76.7475 164.042 76.7503L163.108 76.7506H133.667H133.288C125.909 76.7505 119.819 76.7504 114.858 77.1556C109.706 77.5767 104.969 78.4801 100.52 80.7469C93.6211 84.2624 88.0118 89.8716 84.4965 96.7709C82.2296 101.22 81.3261 105.956 80.9051 111.109C80.4998 116.07 80.4999 122.16 80.5 129.538V129.917V216.084V216.463C80.4999 223.842 80.4998 229.931 80.9051 234.892C81.3261 240.045 82.2296 244.781 84.4965 249.23C88.0118 256.13 93.6211 261.739 100.52 265.254C104.969 267.521 109.706 268.425 114.858 268.846C119.819 269.251 125.909 269.251 133.288 269.251H133.667H192.333H192.712C200.091 269.251 206.18 269.251 211.141 268.846C216.294 268.425 221.03 267.521 225.48 265.254C232.379 261.739 237.988 256.13 241.503 249.23C243.77 244.781 244.674 240.045 245.095 234.892C245.5 229.931 245.5 223.842 245.5 216.463V216.084V159.143V158.208C245.503 152.388 245.505 147.99 244.487 143.748C243.589 140.007 242.107 136.431 240.097 133.15C237.817 129.431 234.706 126.322 230.589 122.208L229.928 121.548L200.702 92.3227L200.042 91.6622C195.928 87.5442 192.82 84.4329 189.101 82.1538C185.82 80.1433 182.244 78.6619 178.502 77.7637ZM126.333 173.001C121.271 173.001 117.167 177.105 117.167 182.167C117.167 187.23 121.271 191.334 126.333 191.334H181.333C186.396 191.334 190.5 187.23 190.5 182.167C190.5 177.105 186.396 173.001 181.333 173.001H126.333ZM126.333 209.667C121.271 209.667 117.167 213.771 117.167 218.834C117.167 223.897 121.271 228.001 126.333 228.001H199.667C204.729 228.001 208.833 223.897 208.833 218.834C208.833 213.771 204.729 209.667 199.667 209.667H126.333Z" fill="white"/>
</g>
</g>
<defs>
<filter id="filter0_df_1490_65" x="0.5" y="0.75" width="325" height="352.501" filterUnits="userSpaceOnUse" color-interpolation-filters="sRGB">
<feFlood flood-opacity="0" result="BackgroundImageFix"/>
<feColorMatrix in="SourceAlpha" type="matrix" values="0 0 0 0 0 0 0 0 0 0 0 0 0 0 0 0 0 0 127 0" result="hardAlpha"/>
<feOffset dy="4"/>
<feGaussianBlur stdDeviation="40"/>
<feComposite in2="hardAlpha" operator="out"/>
<feColorMatrix type="matrix" values="0 0 0 0 0 0 0 0 0 0 0 0 0 0 0 0 0 0 0.25 0"/>
<feBlend mode="normal" in2="BackgroundImageFix" result="effect1_dropShadow_1490_65"/>
<feBlend mode="normal" in="SourceGraphic" in2="effect1_dropShadow_1490_65" result="shape"/>
<feGaussianBlur stdDeviation="7.5" result="effect2_foregroundBlur_1490_65"/>
</filter>
</defs>
</svg>
