<svg width="203" height="158" viewBox="0 0 203 158" fill="none" xmlns="http://www.w3.org/2000/svg">
<path fill-rule="evenodd" clip-rule="evenodd" d="M34.7294 2.09207C31.9202 -0.697357 27.3656 -0.697357 24.5563 2.09207C21.7472 4.88157 21.7472 9.40414 24.5563 12.1936L168.425 155.051C171.234 157.84 175.789 157.84 178.598 155.051C181.407 152.261 181.407 147.739 178.598 144.949L154.826 121.345C159.706 118.43 164.35 115.072 168.683 111.27L199.854 83.9243C201.4 82.5686 202.285 80.6193 202.285 78.5714C202.285 76.5236 201.4 74.5743 199.854 73.2186L168.683 45.8729C139.727 20.4699 96.9459 14.8665 61.8903 29.0621L34.7294 2.09207Z" fill="white"/>
<path d="M34.4716 45.8732C36.1854 44.3696 37.9477 42.9353 39.754 41.5703L67.0186 68.6432C66.1015 71.7953 65.6102 75.1267 65.6102 78.5717C65.6102 98.296 81.7133 114.286 101.577 114.286C105.047 114.286 108.402 113.798 111.576 112.887L130.561 131.739C97.8086 140.961 60.5388 134.138 34.4716 111.27L3.30004 83.9246C1.75453 82.5689 0.869385 80.6196 0.869385 78.5717C0.869385 76.5239 1.75453 74.5746 3.30004 73.2189L34.4716 45.8732Z" fill="white"/>
</svg>
